<?xml version="1.0" encoding="UTF-8"?>
<!DOCTYPE svg PUBLIC "-//W3C//DTD SVG 1.1//EN" "http://www.w3.org/Graphics/SVG/1.1/DTD/svg11.dtd">
<svg xmlns="http://www.w3.org/2000/svg" version="1.1" width="100px" height="100px" style="shape-rendering:geometricPrecision; text-rendering:geometricPrecision; image-rendering:optimizeQuality; fill-rule:evenodd; clip-rule:evenodd" xmlns:xlink="http://www.w3.org/1999/xlink">
<g><path style="opacity:0.866" fill="#fefffe" d="M 67.5,7.5 C 85.3171,5.81651 93.1505,13.8165 91,31.5C 86.9895,38.5212 81.8229,44.6879 75.5,50C 69.9287,53.4675 63.9287,54.3008 57.5,52.5C 60.4916,48.0029 64.4916,44.8363 69.5,43C 74.0343,38.8006 78.201,34.3006 82,29.5C 83.4023,17.9425 78.569,14.1091 67.5,18C 59.518,25.1379 52.518,32.9712 46.5,41.5C 44.6992,35.0713 45.5325,29.0713 49,23.5C 54.497,17.1537 60.6637,11.8204 67.5,7.5 Z"/></g>
<g><path style="opacity:0.852" fill="#fefffe" d="M 60.5,32.5 C 65.4657,33.4404 66.9657,36.1071 65,40.5C 56.2866,49.7152 47.12,58.3819 37.5,66.5C 33.2486,65.0102 32.0819,62.3436 34,58.5C 42.7285,49.6037 51.5618,40.9371 60.5,32.5 Z"/></g>
<g><path style="opacity:0.866" fill="#fefffe" d="M 29.5,45.5 C 33.5546,45.1758 37.5546,45.5091 41.5,46.5C 32.9712,52.518 25.1379,59.518 18,67.5C 14.1091,78.569 17.9425,83.4023 29.5,82C 36.1221,77.3825 41.2888,71.5492 45,64.5C 52.7046,54.7737 55.3713,56.4403 53,69.5C 48.2824,77.5555 42.1157,84.3888 34.5,90C 15.194,94.6886 6.36069,87.1886 8,67.5C 13.3585,58.3091 20.5252,50.9758 29.5,45.5 Z"/></g>
</svg>
