<svg width="16" height="16" xmlns="http://www.w3.org/2000/svg">
  <path d="M5.813 9.701a.937.937 0 10-.002 1.874.937.937 0 00.002-1.874zm-.826-2.549a.723.723 0 001.023 0l1.534-1.529a1.54 1.54 0 00-.11-2.282c-.549-.45-1.359-.445-1.934-.017-.575-.429-1.387-.435-1.935.018a1.541 1.541 0 00-.112 2.282l1.534 1.528zm-.826-3.089a.578.578 0 01.37-.127.68.68 0 01.48.2l.489.486.487-.485c.24-.237.614-.27.851-.075a.606.606 0 01.045.9L5.5 6.34 4.115 4.962a.606.606 0 01.046-.899zm6.6 5.95l.63-1.362a.467.467 0 00-.466-.678.469.469 0 00-.384.285l-1.245 2.69h2.135l-.721 1.337a.467.467 0 00.425.7.469.469 0 00.4-.257L13 10.013h-2.24zM7.998 8.61h-.535l-.139-.277a.534.534 0 00-.5-.346H4.797a.535.535 0 00-.5.346l-.137.277h-.536A.624.624 0 003 9.234v3.123c0 .344.28.624.625.624h4.373c.345 0 .625-.28.625-.624V9.234a.624.624 0 00-.625-.624zm-.312 3.435H3.937v-2.5h.806L5 9.026l.05-.103h1.52l.052.105.259.519h.803v2.499zm2.187-4.99V4.33l2.186-.336v1.532a1.644 1.644 0 00-.312-.033c-.69 0-1.25.419-1.25.936 0 .517.56.935 1.25.935s1.25-.418 1.25-.935V3.624c0-.35-.265-.624-.58-.624a.545.545 0 00-.082.006l-2.902.446c-.285.044-.498.306-.498.617V6.15a1.629 1.629 0 00-.312-.033c-.69 0-1.25.42-1.25.938s.56.938 1.25.938 1.25-.42 1.25-.938z" fill="#FFF" fill-rule="evenodd"/>
</svg>
